Coordinates
version=1
nRows=30
nColumns=23
inDegrees=yes

Units are S.I. units (second, meters, Newtons, ...)
If the header above contains a line with 'inDegrees', this indicates whether rotational values are in degrees (yes) or radians (no).

endheader
time	pelvis_tilt	pelvis_list	pelvis_rotation	pelvis_tx	pelvis_ty	pelvis_tz	hip_flexion_r	hip_adduction_r	hip_rotation_r	knee_angle_r	knee_angle_r_beta	ankle_angle_r	subtalar_angle_r	mtp_angle_r	hip_flexion_l	hip_adduction_l	hip_rotation_l	knee_angle_l	knee_angle_l_beta	ankle_angle_l	subtalar_angle_l	mtp_angle_l
     22.50000000	     -4.56900696	      3.06190436	      4.35484675	      2.33332532	      0.97487941	      1.04038798	     40.92276353	     -3.96350162	     -0.05043399	    112.26143240	      1.95933162	     -3.66537683	    -16.82679113	      0.00000000	     11.13679125	      3.33239028	     -6.46880065	     46.36962921	      0.80930270	     28.72539447	      4.24224075	      0.00000000
     22.50666667	     -4.43258706	      2.13000950	      3.85740809	      2.33514595	      0.97912941	      1.04089970	     42.32664507	     -2.75360090	     -0.59236419	    109.73058130	      1.91515993	     -2.72163130	    -16.63241492	      0.00000000	      8.04101862	      2.16102977	     -6.81036113	     44.17418832	      0.77098503	     28.18384566	      5.13858166	      0.00000000
     22.51333333	     -4.38560321	      1.23183358	      3.31809978	      2.33729474	      0.98362809	      1.04139948	     43.61271544	     -1.58344516	     -1.14903967	    106.91101845	      1.86594928	     -1.84928025	    -16.47582386	      0.00000000	      4.97780368	      1.12067989	     -7.20042699	     41.73139726	      0.72835028	     26.88389530	      5.71736840	      0.00000000
     22.52000000	     -4.47981581	      0.48466398	      2.71866223	      2.33972878	      0.98824989	      1.04192202	     44.85202762	     -0.53998423	     -1.60251930	    103.85271490	      1.81257181	     -1.02958327	    -16.36814710	      0.00000000	      1.99694858	      0.38423683	     -7.56050123	     38.99646645	      0.68061674	     24.55957674	      5.76901976	      0.00000000
     22.52666667	     -4.56634228	     -0.29074516	      2.08979043	      2.34252729	      0.99320897	      1.04244091	     45.84052634	      0.52684978	     -2.11361363	    100.48684007	      1.75382621	     -0.28645430	    -16.32291902	      0.00000000	     -1.01491660	     -0.29756698	     -7.97134027	     36.06362063	      0.62942892	     21.37048272	      5.47355379	      0.00000000
     22.53333333	     -4.74459645	     -0.92731049	      1.38975841	      2.34553939	      0.99814848	      1.04304318	     46.73132066	      1.47874889	     -2.54025602	     96.91374174	      1.69146388	      0.37518917	    -16.33427679	      0.00000000	     -3.92882775	     -0.73753623	     -8.46655414	     32.96830755	      0.57540552	     17.37214379	      4.87527006	      0.00000000
     22.54000000	     -5.00588761	     -1.46261572	      0.63033669	      2.34870403	      1.00303816	      1.04369671	     47.52769687	      2.40418317	     -2.85580723	     93.12664795	      1.62536663	      1.00880158	    -16.34681472	      0.00000000	     -6.72083373	     -0.96948561	     -9.01051718	     29.78361171	      0.51982209	     12.74859913	      4.02155469	      0.00000000
     22.54666667	     -5.37348943	     -1.85985548	     -0.16219939	      2.35198841	      1.00773625	      1.04435317	     48.25534985	      3.19524364	     -3.11201004	     89.14612735	      1.55589344	      1.58639379	    -16.32725904	      0.00000000	     -9.31099281	     -0.98045594	     -9.61693220	     26.60609339	      0.46436393	      7.59426117	      2.97604924	      0.00000000
     22.55333333	     -5.83339539	     -2.13182130	     -0.99637653	      2.35528175	      1.01216723	      1.04507216	     48.91572423	      3.89944009	     -3.29975320	     84.97855115	      1.48315551	      2.10841916	    -16.24813127	      0.00000000	    -11.66213032	     -0.82031861	    -10.37234064	     23.56584793	      0.41130164	      2.18186021	      1.85851247	      0.00000000
     22.56000000	     -6.38470812	     -2.26004489	     -1.83831886	      2.35852455	      1.01622890	      1.04576596	     49.51817361	      4.47506902	     -3.43606224	     80.63909340	      1.40741769	      2.58169973	    -16.08967274	      0.00000000	    -13.71436523	     -0.50193041	    -11.31344949	     20.80701584	      0.36315093	     -3.20662226	      0.83907429	      0.00000000
     22.56666667	     -7.03889787	     -2.20762308	     -2.70047875	      2.36160494	      1.01984878	      1.04648021	     50.10001108	      4.91209340	     -3.49100980	     76.15496406	      1.32915486	      3.10537509	    -15.66351440	      0.00000000	    -15.42264380	      0.02480806	    -12.32901573	     18.40772243	      0.32127536	     -8.33776922	     -0.28670686	      0.00000000
     22.57333333	     -7.76967223	     -1.94605411	     -3.56297403	      2.36447033	      1.02294644	      1.04717177	     50.65075448	      5.18130413	     -3.46926992	     71.54994297	      1.24878208	      3.65341504	    -14.99417343	      0.00000000	    -16.74979540	      0.71831834	    -13.62568526	     16.54584065	      0.28877940	    -12.83857941	     -1.08455107	      0.00000000
     22.58000000	     -8.48294508	     -1.58401841	     -4.33491966	      2.36711462	      1.02571359	      1.04774338	     51.04536485	      5.30793693	     -3.50261641	     66.78904492	      1.16568874	      4.27982850	    -13.92398158	      0.00000000	    -17.79811983	      1.48135141	    -14.85231807	     15.24160200	      0.26601614	    -16.64709917	     -2.04102872	      0.00000000
     22.58666667	     -9.20649400	     -1.07433849	     -5.07074331	      2.36948039	      1.02796544	      1.04832536	     51.35254100	      5.31417086	     -3.52595244	     61.93748886	      1.08101311	      5.02242208	    -12.44694053	      0.00000000	    -18.52832787	      2.31683914	    -16.21842540	     14.57578370	      0.25439542	    -19.51852506	     -2.87087586	      0.00000000
     22.59333333	     -9.83866555	     -0.50971266	     -5.68983655	      2.37154799	      1.02990897	      1.04886423	     51.44792624	      5.21616465	     -3.64066771	     56.98408302	      0.99455987	      5.86116074	    -10.57142789	      0.00000000	    -19.05609401	      3.11369631	    -17.53286163	     14.56464492	      0.25420101	    -21.46544707	     -3.68772727	      0.00000000
     22.60000000	    -10.60284608	      0.25704682	     -6.34388541	      2.37313830	      1.03097864	      1.04971877	     51.64921100	      5.19020883	     -3.40124788	     52.02907879	      0.90807873	      6.66377067	     -8.74893799	      0.00000000	    -19.14189899	      3.99758199	    -18.93475963	     15.24935652	      0.26615148	    -22.48441130	     -4.42547837	      0.00000000
     22.60666667	    -10.83361919	      0.61121103	     -6.70012056	      2.37485243	      1.03258179	      1.05026816	     51.04589738	      5.13580489	     -3.80768639	     46.95031637	      0.81943761	      7.77926597	     -5.98005863	      0.00000000	    -19.65906251	      4.35280484	    -20.16504773	     16.42310632	      0.28663728	    -22.64180363	     -4.84089544	      0.00000000
     22.61333333	    -11.09795787	      1.04927392	     -7.06114883	      2.37609557	      1.03354330	      1.05124538	     50.41715967	      5.25207417	     -3.76973648	     41.90186755	      0.73132555	      8.76793113	     -3.58159764	      0.00000000	    -19.90002073	      4.64829847	    -21.35622675	     18.21383797	      0.31789144	    -22.16593185	     -5.19597243	      0.00000000
     22.62000000	    -11.17508421	      1.32882234	     -7.36466198	      2.37711809	      1.03438389	      1.05245031	     49.44695763	      5.58451648	     -3.46954015	     36.85451654	      0.64323266	      9.68895616	     -1.44339510	      0.00000000	    -20.19263673	      4.66952014	    -22.46364632	     20.47180208	      0.35730035	    -21.19843479	     -5.28093782	      0.00000000
     22.62666667	    -11.03635597	      1.42843603	     -7.58688377	      2.37799351	      1.03518988	      1.05380688	     48.07561744	      6.11359918	     -2.76936926	     31.80744525	      0.55514465	     10.37375644	      0.12040072	      0.00000000	    -20.59608147	      4.42300257	    -23.33204176	     23.11068052	      0.40335747	    -19.93157638	     -5.28513652	      0.00000000
     22.63333333	    -10.73591803	      1.33814983	     -7.69042492	      2.37880547	      1.03598615	      1.05513394	     46.33732731	      6.76713201	     -1.65078629	     26.77567027	      0.46732361	     10.79673511	      0.97423602	      0.00000000	    -21.05694869	      3.90630916	    -23.89007941	     26.07399386	      0.45507704	    -18.63358333	     -5.28846045	      0.00000000
     22.64000000	    -10.19079830	      1.08078674	     -7.82695358	      2.37948470	      1.03686376	      1.05651787	     44.07890880	      7.65232040	      0.47484062	     21.67131810	      0.37823585	     10.67670556	      0.36356520	      0.00000000	    -21.65881549	      3.23164931	    -24.24941873	     29.31557917	      0.51165338	    -17.35293724	     -5.21438262	      0.00000000
     22.64666667	     -9.44519257	      0.72219863	     -7.77381801	      2.38026149	      1.03769132	      1.05742690	     41.52746763	      8.26469452	      2.48765673	     16.88836741	      0.29475762	     10.35760631	     -0.32385748	      0.00000000	    -22.33207082	      2.46604450	    -24.05066844	     32.77805377	      0.57208496	    -16.33256805	     -5.46577360	      0.00000000
     22.65333333	     -8.58809255	      0.36482398	     -7.62258306	      2.38102446	      1.03818380	      1.05794183	     38.98888589	      8.58104029	      4.06169728	     12.79607442	      0.22333363	     10.03958171	     -0.66712604	      0.00000000	    -22.94383700	      1.72834581	    -23.43911614	     36.47850178	      0.63666996	    -15.55179430	     -5.96035588	      0.00000000
     22.66000000	     -7.93444283	      0.18701149	     -7.41489769	      2.38142259	      1.03779515	      1.05832851	     37.10487143	      8.55971151	      4.71607530	      9.92612746	      0.17324361	      9.90877088	     -0.23912370	      0.00000000	    -23.02125837	      1.17200089	    -22.35251640	     40.60125802	      0.70862563	    -15.00447159	     -6.82929723	      0.00000000
     22.66666667	     -6.91264964	     -0.20850935	     -7.33252966	      2.38163825	      1.03759208	      1.05855646	     34.84498069	      8.74627492	      5.55290364	      7.57672361	      0.13223877	      9.63518768	     -0.61457037	      0.00000000	    -23.37403855	      0.55581035	    -21.34534783	     44.83948044	      0.78259657	    -14.69855514	     -7.67315261	      0.00000000
     22.67333333	     -6.31962120	     -0.43140324	     -7.33340027	      2.38120693	      1.03622789	      1.05883204	     33.60411998	      8.82020793	      5.51076210	      6.67692331	      0.11653430	      9.74042480	     -0.27799087	      0.00000000	    -22.95091706	      0.15902973	    -20.13942374	     49.47449495	      0.86349283	    -14.49051960	     -8.77101193	      0.00000000
     22.68000000	     -5.42701193	     -0.94600310	     -7.17920957	      2.38078781	      1.03505030	      1.05865392	     32.04837980	      9.02553744	      5.00075812	      6.23784535	      0.10887094	      9.56699182	     -0.16339800	      0.00000000	    -22.75538926	     -0.50456044	    -18.95401094	     54.17952345	      0.94561107	    -14.56292591	     -9.85129490	      0.00000000
     22.68666667	     -4.61881819	     -1.53430184	     -7.26275197	      2.37992498	      1.03325789	      1.05856664	     30.82300869	      9.45280689	      4.57373042	      6.66881466	      0.11639277	      9.43014216	     -0.31893540	      0.00000000	    -22.35062067	     -1.09796368	    -17.99105286	     58.98134888	      1.02941874	    -14.63727197	    -10.86180155	      0.00000000
     22.69333333	     -3.74771833	     -2.21711927	     -7.39001829	      2.37882891	      1.03116831	      1.05829068	     29.63991942	      9.96230451	      3.98816243	      7.66766205	      0.13382595	      9.08588991	     -0.68820658	      0.00000000	    -21.94631599	     -1.76930837	    -17.25755097	     63.77828481	      1.11314106	    -14.68413617	    -11.85131343	      0.00000000
